<?xml version="1.0" encoding="utf-8"?>
<!-- Generator: Adobe Illustrator 14.0.0, SVG Export Plug-In . SVG Version: 6.00 Build 43363)  -->
<!DOCTYPE svg PUBLIC "-//W3C//DTD SVG 1.1//EN" "http://www.w3.org/Graphics/SVG/1.1/DTD/svg11.dtd">
<svg version="1.1" id="Calque_1" xmlns="http://www.w3.org/2000/svg" xmlns:xlink="http://www.w3.org/1999/xlink" x="0px" y="0px"
	 width="587px" height="662px" viewBox="0 0 587 662" enable-background="new 0 0 587 662" xml:space="preserve">
<g>
	<path fill="#002D56" d="M171.222,447.03c137.853-12.644,196.339-55.48,231.438-153.11c25.653-65.354,30.437-104.879,98.361-131.194
		c-83.427,8.408-127.71,19.205-163.349,123.553C297.084,385.153,266.438,402.075,171.222,447.03"/>
	<path fill="#D73C38" d="M156.896,458.846c-64.186-5.229-98.448-7.572-91.957-36.432c16.948-22.003,64.543-22.003,174.354-15.877
		c-54.81-12.261-205.184-29.574-218.228,15.633C11.76,460.476,105.154,473.65,156.896,458.846"/>
	<path fill="#8E979D" d="M224.707,625.793c-149.093,24.913-270.04-17.95-104.165-41.573c-37.992,1.264-78.546,1.089-91.703,23.998
		C24.813,643.578,145.411,649.982,224.707,625.793"/>
	<path fill="#8E979D" d="M171.657,522.849c-97.368-2.701-124.433-26.359-143.864-56.309c-10.84-25.427-42.201-82.955,47.595-199.999
		c27.013,16.574,58.417,16.574,89.229,6.658c-53.015,2.326-62.756-0.166-84.924-12.096c10.822-7.546,24.903-11.345,47.071-11.902
		c-16.773-5.769-42.732-1.43-55.716,12.443C13.171,330.013-6.313,391.89,11.559,452.851c15.136,38.96,37.303,70.713,126.55,75.4
		c-17.828,5.604-17.828,19.31,12.983,16.792C134.318,540.137,141.908,529.89,171.657,522.849"/>
	<path fill="#FFFFFF" d="M354.813,288.831c15.764-40.571,32.737-75.557,71.854-89.237c-34.603,41.931-35.247,62.347-52.038,100.661
		c-14.021,39.987-29.984,67.959-74.834,93.908C336.705,349.2,343.72,326.196,354.813,288.831"/>
	<polyline fill="#EFB310" points="399.104,76.023 419.939,61.279 440.408,75.884 432.374,52.383 451.823,38.571 427.634,38.571 
		419.878,16.125 412.176,38.606 388.151,38.606 407.436,52.427 	"/>
	<polyline fill="#EFB310" points="310.721,62.856 331.556,48.113 352.016,62.727 343.981,39.216 363.439,25.405 339.25,25.405 
		331.485,2.976 323.791,25.439 299.768,25.439 319.06,39.251 	"/>
	<polyline fill="#EFB310" points="221.919,91.455 242.744,76.712 263.204,91.316 255.179,67.814 274.637,54.004 250.447,54.004 
		242.675,31.557 234.989,54.029 210.957,54.029 230.249,67.85 	"/>
	<polyline fill="#EFB310" points="171.937,169.017 192.762,154.281 213.23,168.886 205.205,145.385 224.654,131.564 
		200.465,131.564 192.701,109.127 185.007,131.608 160.983,131.608 180.267,145.42 	"/>
	<polyline fill="#EFB310" points="159.022,250.021 179.849,235.285 200.317,249.898 192.292,226.389 211.741,212.577 
		187.552,212.577 179.787,190.139 172.093,212.604 148.069,212.604 167.353,226.432 	"/>
	<polyline fill="#EFB310" points="189.12,321.055 209.963,306.312 230.423,320.915 222.389,297.423 241.847,283.603 
		217.648,283.603 209.894,261.156 202.199,283.638 178.176,283.638 197.459,297.449 	"/>
	<polyline fill="#EFB310" points="246.064,370.357 266.899,355.622 287.359,370.227 279.325,346.726 298.792,332.905 
		274.594,332.905 266.829,310.468 259.135,332.94 235.111,332.94 254.403,346.761 	"/>
	<polyline fill="#EFB310" points="490.931,230.736 511.757,216.01 532.225,230.605 524.199,207.096 543.648,193.293 
		519.459,193.293 511.695,170.847 504.001,193.328 479.978,193.328 499.261,207.131 	"/>
	<polyline fill="#EFB310" points="466.026,314.258 486.853,299.515 507.321,314.127 499.296,290.626 518.745,276.807 
		494.556,276.807 486.791,254.368 479.097,276.841 455.064,276.841 474.356,290.661 	"/>
	<polyline fill="#EFB310" points="466.531,140.34 487.357,125.604 507.817,140.209 499.792,116.699 519.25,102.888 495.061,102.888 
		487.288,80.45 479.603,102.923 455.57,102.923 474.862,116.743 	"/>
	<polyline fill="#002D56" points="376.039,401.553 389.606,401.553 396.612,375.516 403.618,401.553 417.072,401.553 
		430.335,352.398 416.863,352.398 409.666,379.438 402.756,352.503 389.162,352.503 	"/>
	<path fill="#002D56" d="M436.679,352.398l-8.74,33.06c-1.777,6.248-0.131,11.93,5.359,15.006c1.742,0.984,6.116,2.082,11.04,2.082
		c14.561,0,22.891-8.104,25.627-18.281l8.436-31.866h-13.594l-8.505,31.666c-0.889,3.581-4.174,6.657-8.888,6.657
		c-4.915,0-6.457-2.972-5.568-6.257l8.645-32.066"/>
	<path fill="#002D56" d="M535.318,385.458c-1.429,4.819-0.784,9.751,2.632,13.358c2.292,2.536,5.577,4.174,12.81,4.174
		c4.278,0,7.555-0.784,9.297-1.333c7.895-2.492,13.707-8.853,15.449-15.649c1.29-4.924,0.437-8.854-2.979-11.694
		c-0.749-0.688-3.381-2.326-7.441-3.521l-7.756-2.396c-2.195-0.784-2.526-2.082-2.291-3.076c0.409-1.429,2.187-3.381,6.003-3.381
		c4.384,0,5.473,2.048,5.133,4.68h12.949c1.298-5.027,0.305-9.507-2.867-12.373c-1.952-1.848-4.827-3.276-11.589-3.276
		c-7.137,0-11.172,1.638-14.038,3.512c-3.041,1.951-5.464,4.583-7.102,7.563c-0.759,1.395-1.308,2.833-1.647,4.375
		c-1.839,6.657,0.34,11.92,5.708,13.663l11.275,3.729c3.381,1.098,3.485,2.632,3.172,4.078c-0.54,1.751-2.728,4.374-7.79,4.374
		c-4.811,0-6.344-2.979-5.359-6.806"/>
	<polyline fill="#002D56" points="501.944,401.553 515.713,401.553 525.585,364.981 538.403,364.981 541.784,352.398 
		502.153,352.398 498.869,364.877 511.678,364.877 	"/>
	<polyline fill="#D73C38" points="505.134,473.59 515.625,473.59 520.54,455.3 526.448,473.59 536.975,473.59 546.167,439.196 
		535.78,439.196 530.718,458.044 524.81,439.196 514.423,439.196 	"/>
	<polyline fill="#D73C38" points="508.463,545.217 538.664,545.217 541.087,536.024 521.62,536.024 522.806,531.658 
		539.344,531.658 541.436,523.65 524.896,523.65 525.994,519.477 545.356,519.477 547.753,510.719 517.655,510.719 	"/>
	<polyline fill="#D73C38" points="360.154,545.217 390.443,545.217 392.883,536.024 373.364,536.024 374.462,531.658 
		391.001,531.658 393.188,523.65 376.649,523.65 377.738,519.477 397.152,519.477 399.54,510.719 369.442,510.719 	"/>
	<path fill="#D73C38" d="M411.461,546.105c11.52,0,20.704-7.346,23.439-17.881c3.076-11.249-2.178-18.49-13.349-18.49
		c-11.485,0-20.478,7.241-23.44,18.186C395.166,538.864,400.533,546.105,411.461,546.105"/>
	<path fill="#D73C38" d="M434.012,545.217h10.735l3.172-12.277h4.165c2.301,0,3.729,0.993,4.166,2.3
		c0.209,0.68,0.453,1.874-0.437,5.499c-0.889,3.485-0.784,3.686-0.549,4.479h10.937c-0.445-0.889-0.646-1.742,0-4.069
		c0.243-0.854,0.444-1.742,0.784-2.736c1.402-5.367-0.244-7.859-3.076-8.853c3.825-1.534,6.901-4.924,7.99-8.749
		c1.542-5.707-1.638-10.091-7.79-10.091h-20.765"/>
	<path fill="#D73C38" d="M492.168,533.933h5.02c-1.743,2.396-4.375,3.938-7.216,3.938c-4.27,0-7.128-2.945-5.254-9.742
		c1.839-7.015,6.108-9.742,9.838-9.742c3.076,0,4.723,1.979,4.374,4.61h10.735c0.871-7.006-3.938-13.263-13.576-13.263
		c-3.616,0-7.337,0.889-10.927,2.972c-5.604,3.181-9.777,8.104-11.721,15.423c-3.721,13.907,5.673,17.977,12.13,17.977
		c4.609,0,8.234-1.542,11.276-4.174l-0.41,3.285h7.546l4.924-18.63h-14.796"/>
	<path fill="#D73C38" d="M343.92,533.933h5.063c-1.777,2.396-4.374,3.938-7.249,3.938c-4.271,0-7.11-2.945-5.264-9.742
		c1.883-7.015,6.152-9.742,9.882-9.742c3.067,0,4.705,1.979,4.374,4.61h10.718c0.889-7.006-3.921-13.263-13.559-13.263
		c-3.729,0-7.346,0.889-10.979,2.972c-5.56,3.181-9.725,8.104-11.711,15.423c-3.721,13.907,5.611,17.977,12.164,17.977
		c4.618,0,8.2-1.542,11.276-4.174l-0.445,3.285h7.451l5.054-18.63h-14.796"/>
	<polyline fill="#D73C38" points="450.063,473.59 461.233,473.59 464.17,468.562 475.438,468.562 475.786,473.59 486.853,473.59 
		483.132,439.196 472.266,439.196 	"/>
	<polyline fill="#8E979D" points="477.285,609.02 488.003,609.02 489.615,605.333 500.62,605.333 502.258,609.02 512.977,609.02 
		500.342,583.618 489.815,583.618 	"/>
	<path fill="#D73C38" d="M420.61,462.306c-0.993,3.39-0.349,6.805,2.283,9.437c1.882,1.752,4.514,2.841,10.082,2.841
		c3.284,0,5.812-0.54,7.102-0.889c6.151-1.752,10.421-6.222,11.729-11.04c0.889-3.416,0.235-6.152-2.501-8.209
		c-0.68-0.444-2.762-1.533-5.813-2.422l-6.143-1.743c-1.743-0.453-1.943-1.342-1.743-2.091c0.2-0.994,1.543-2.388,4.471-2.388
		c3.415,0,4.27,1.498,4.069,3.381h10.082c0.854-3.625,0.104-6.797-2.423-8.749c-1.543-1.333-3.834-2.326-9.098-2.326
		c-5.463,0-8.644,1.229-10.822,2.431c-2.292,1.395-4.034,3.276-5.263,5.368c-0.646,0.993-0.994,1.943-1.308,3.032
		c-1.185,4.723,0.558,8.452,4.724,9.646l8.853,2.526c2.632,0.758,2.728,1.848,2.527,2.841c-0.349,1.333-2.092,3.181-5.917,3.181
		c-3.721,0-5.054-2.196-4.365-4.827"/>
	<path fill="#D73C38" d="M545.81,533.828c-0.993,3.39-0.349,6.779,2.283,9.411c1.848,1.777,4.479,2.962,10.082,2.962
		c3.285,0,5.813-0.54,7.102-0.88c6.117-1.847,10.387-6.36,11.729-11.04c0.89-3.521,0.2-6.257-2.526-8.348
		c-0.662-0.436-2.736-1.534-5.821-2.388l-6.108-1.743c-1.742-0.444-1.978-1.342-1.742-2.091c0.2-0.985,1.533-2.423,4.47-2.423
		c3.381,0,4.27,1.534,4.069,3.416h10.047c0.994-3.625,0.14-6.797-2.388-8.783c-1.542-1.299-3.834-2.292-9.097-2.292
		c-5.464,0-8.645,1.202-10.822,2.396c-2.318,1.429-4.069,3.311-5.264,5.367c-0.653,0.993-0.993,1.979-1.342,3.067
		c-1.186,4.723,0.593,8.452,4.723,9.646l8.88,2.526c2.631,0.759,2.735,1.848,2.501,2.841c-0.314,1.299-2.057,3.181-5.917,3.181
		c-3.687,0-5.028-2.195-4.235-4.827"/>
	<path fill="#8E979D" d="M536.051,599.695c-0.279,2.214-2.563,3.791-5.612,3.791c-3.415,0-6.831-1.952-6.831-7.216
		c0-5.063,3.311-7.006,6.936-7.006c3.05,0,5.333,1.569,5.508,3.86h10.352c-0.488-5.533-6.57-10.221-16.068-10.221
		c-8.539,0-17.828,3.86-17.828,13.741c0,7.764,7.11,13.132,17.828,13.132c9.707,0,15.476-4.444,16.068-10.082"/>
	<polyline fill="#D73C38" points="549.783,473.59 560.414,473.59 567.315,447.997 577.362,447.997 579.689,439.196 548.999,439.196 
		546.611,447.85 556.685,447.85 	"/>
	<path fill="#8E979D" d="M331.425,609.02h15.78c10.893,0,17.088-4.61,17.088-12.749c0-7.824-6.562-12.652-16.233-12.652h-16.635"/>
	<path fill="#8E979D" d="M179.796,609.02h11.415l9.934-25.401h-10.143l-4.645,12.479c-0.305,0.715-0.854,2.666-1.229,4.889
		c-0.313-1.664-0.784-3.416-1.237-4.715l-4.671-12.652h-10.735"/>
	<path fill="#8E979D" d="M141.212,616.121c9.236-27.213,17.793-56.004,9.681-64.168c-7.433-4.479-19.824-6.614-25-1.359
		c-5.629,6.029-0.227,8.164,7.041,10.874C138.502,568.282,139.853,589.475,141.212,616.121"/>
	<path fill="#EFB310" d="M139.765,451.273c-5.045-15.336-13.341-30.123-21.278-41.129l-9.185,1.986
		c7.746,10.997,13.698,22.909,20.007,36.259"/>
	<path fill="#8E979D" d="M414.511,600.715c0,2.492,1.446,4.984,4.758,6.901c2.179,1.307,5.019,2.057,10.456,2.057
		c3.207,0,5.56-0.279,6.832-0.653c5.394-1.194,8.435-4.514,8.435-8.034c0-2.597-1.429-4.61-4.645-6.082
		c-0.688-0.271-3.041-1.125-6.282-1.778l-6.361-1.264c-1.813-0.383-2.283-1.027-2.283-1.577c0-0.749,0.854-1.769,3.817-1.769
		c3.319,0,4.548,1.124,4.757,2.492h9.769c0-2.666-1.612-4.993-4.574-6.466c-1.883-0.924-4.34-1.638-9.464-1.638
		c-5.333,0-8.104,0.818-9.881,1.742c-1.813,1.028-3.137,2.388-3.826,3.965c-0.27,0.759-0.374,1.473-0.374,2.223
		c0,3.485,2.771,6.187,7.146,7.11l9.184,1.951c2.771,0.55,3.242,1.36,3.242,2.014c0,0.923-1.221,2.326-4.95,2.326
		c-3.59,0-5.402-1.56-5.498-3.521"/>
	<path fill="#8E979D" d="M449.471,609.02h10.316v-7.764h6.762c8.436,0,12.81-3.521,12.81-8.949c0-4.993-4.54-8.688-12.426-8.688
		h-17.462"/>
	<polyline fill="#8E979D" points="275.421,609.02 304.743,609.02 304.743,602.388 285.843,602.388 285.843,599.146 301.911,599.146 
		301.911,593.221 285.747,593.221 285.747,590.084 304.674,590.084 304.674,583.618 275.421,583.618 	"/>
	<polyline fill="#8E979D" points="550.289,609.02 579.707,609.02 579.707,602.388 560.745,602.388 560.745,599.146 576.77,599.146 
		576.77,593.221 560.745,593.221 560.745,590.084 579.532,590.084 579.532,583.618 550.289,583.618 	"/>
	<polyline fill="#8E979D" points="381.172,609.02 410.624,609.02 410.624,602.388 391.628,602.388 391.628,599.146 407.679,599.146 
		407.679,593.221 391.628,593.221 391.628,590.084 410.415,590.084 410.415,583.618 381.172,583.618 	"/>
	<polyline fill="#002D56" points="471.708,401.553 485.511,401.553 498.668,352.398 484.857,352.398 	"/>
	<polyline fill="#8E979D" points="247.319,609.02 272.859,609.02 272.859,602.283 257.662,602.283 257.662,583.618 247.319,583.618 
			"/>
	<polyline fill="#8E979D" points="219.121,609.02 244.749,609.02 244.749,602.283 229.543,602.283 229.543,583.618 219.121,583.618 
			"/>
	<path fill="#EFB310" d="M125.701,391.393c11.362-36.075,13.698-86.223,12.809-110.578l-9.027,0.366
		c-1.08,33.19-0.897,64.395-13.872,110.212"/>
	<path fill="#EFB310" d="M138.031,469.416c6.029,12.129,11.946,27.684,14.709,39.856l7.484-0.174
		c-1.986-10.257-8.47-26.97-14.979-39.683"/>
	<polyline fill="#D73C38" points="489.354,473.59 499.976,473.59 509.265,439.196 498.537,439.196 	"/>
	<path fill="#FFFFFF" d="M413.787,538.106c-3.965,0-7.031-2.728-4.818-10.735c1.742-6.562,5.908-9.638,10.282-9.638
		c4.174,0,7.006,2.832,5.036,10.396C422.301,535.135,417.927,538.106,413.787,538.106"/>
	<path fill="#FFFFFF" d="M144.453,586.93c-0.68-10.7-2.021-23.937-4.819-26.839c-5.533-1.742-7.79-2.701-5.776-5.646
		c2.257-2.702,9.463-2.527,13.157,1.751C150.291,560.091,148.278,576.055,144.453,586.93"/>
	<path fill="#FFFFFF" d="M341.776,602.728V589.91h4.174c4.366,0,7.887,2.291,7.887,6.57c0,3.965-3.312,6.352-7.687,6.352"/>
	<path fill="#FFFFFF" d="M449.662,526.038l2.091-7.416h6.797c2.423,0,3.381,1.517,2.972,3.381c-0.688,2.396-2.771,4.035-5.167,4.035
		"/>
	<path fill="#EFB310" d="M137.238,267.544c0-59.891,0.374-77.937-2.161-138.55l-8.845-0.165
		c2.901,62.042,4.174,80.977,2.901,138.715"/>
	<rect x="203.707" y="583.609" fill="#8E979D" width="10.456" height="25.41"/>
	<path fill="#FFFFFF" d="M459.787,595.452v-5.542h6.082c2.492,0,3.896,1.202,3.896,2.666c0,1.743-1.333,2.876-4.174,2.876"/>
	<path fill="#8E979D" d="M368.658,594.633c4.549-0.104,7.494-2.597,7.494-5.542v-5.473h-7.59v5.646h3.416
		c0,1.359-1.333,2.667-3.32,2.867"/>
	<path fill="#FFFFFF" d="M468.676,461.216l2.945-4.923c1.193-2.083,2.178-3.93,3.066-5.708c-0.104,1.883-0.104,3.521,0,6.257
		l0.314,4.374"/>
	<path fill="#FFFFFF" d="M492.011,599.896l1.604-3.625c0.645-1.567,1.124-2.944,1.499-4.234c0.479,1.464,0.854,2.597,1.708,4.609
		l1.333,3.25"/>
</g>
</svg>
